<svg width="40" height="41" viewBox="0 0 40 41" fill="none" xmlns="http://www.w3.org/2000/svg">
<path fill-rule="evenodd" clip-rule="evenodd" d="M28.7526 21.3999C26.5213 22.2945 24.1129 22.8463 21.5938 22.9893C21.1594 23.0139 20.7217 23.0264 20.281 23.0264C19.8403 23.0264 19.4026 23.0139 18.9682 22.9893C16.4485 22.8463 14.0396 22.2943 11.8079 21.3993C7.12452 19.5211 3.22204 16.1323 0.716553 11.8432C4.62179 5.15788 11.921 0.660004 20.281 0.660004C28.641 0.660004 35.9402 5.15788 39.8454 11.8432C37.3397 16.1328 33.4366 19.5218 28.7526 21.3999Z" fill="white"/>
<path d="M11.8075 23.1403C11.268 22.9239 10.7388 22.6875 10.221 22.4319C8.53793 23.606 7.11516 25.0682 6.04382 26.7365C7.86481 29.5722 10.7011 31.8126 14.105 33.0543C15.727 33.646 17.4778 34.011 19.3091 34.1055H21.2174C23.0483 34.011 26.2662 35.8072 21.5935 40.3399C24.9979 39.0983 32.6615 29.5725 34.4827 26.7365C33.4145 25.073 31.9967 23.6143 30.32 22.442C29.8081 22.6939 29.2852 22.9272 28.7522 23.1409C26.521 24.0355 24.1125 24.5873 21.5935 24.7302C21.159 24.7549 20.7213 24.7674 20.2807 24.7674C19.84 24.7674 19.4023 24.7549 18.9678 24.7302C16.4482 24.5872 14.0392 24.0352 11.8075 23.1403Z" fill="white"/>
<rect x="10.8469" y="8.98242" width="18.9093" height="6.68764" rx="3.34382" fill="#162550"/>
<ellipse cx="25.5161" cy="12.2891" rx="1.23811" ry="1.22607" fill="#04FED1"/>
<ellipse cx="20.2633" cy="28.7852" rx="1.23811" ry="1.22607" fill="#162550"/>
<ellipse cx="15.3117" cy="12.2891" rx="1.23811" ry="1.22607" fill="#04FED1"/>
<ellipse cx="15.3117" cy="28.7852" rx="1.23811" ry="1.22607" fill="#162550"/>
<ellipse cx="25.2164" cy="28.7852" rx="1.23811" ry="1.22607" fill="#162550"/>
</svg>
