<svg width="28" height="28" viewBox="0 0 28 28" fill="none" xmlns="http://www.w3.org/2000/svg">
<path fill-rule="evenodd" clip-rule="evenodd" d="M20.3061 14.7854C18.7871 15.4004 17.1474 15.7798 15.4324 15.8781C15.1366 15.895 14.8386 15.9036 14.5386 15.9036C14.2386 15.9036 13.9406 15.895 13.6448 15.8781C11.9294 15.7797 10.2893 15.4002 8.76995 14.7849C5.58145 13.4937 2.92458 11.1639 1.21881 8.21513C3.87755 3.61896 8.84694 0.526672 14.5386 0.526672C20.2302 0.526672 25.1996 3.61896 27.8583 8.21513C26.1524 11.1642 23.4951 13.4942 20.3061 14.7854Z" fill="white"/>
<path d="M8.76979 15.9819C8.40246 15.8331 8.04219 15.6706 7.68962 15.4949C6.54379 16.302 5.57515 17.3073 4.84576 18.4543C6.08552 20.4038 8.01654 21.9441 10.3339 22.7978C11.4382 23.2046 12.6302 23.4555 13.877 23.5205H15.1762C16.4227 23.4555 18.6135 24.6904 15.4322 27.8066C17.75 26.953 22.9675 20.404 24.2074 18.4543C23.4801 17.3106 22.5149 16.3078 21.3733 15.5018C21.0248 15.675 20.6689 15.8354 20.306 15.9823C18.7869 16.5973 17.1472 16.9767 15.4322 17.075C15.1364 17.0919 14.8384 17.1005 14.5384 17.1005C14.2384 17.1005 13.9404 17.0919 13.6446 17.075C11.9292 16.9767 10.2891 16.5972 8.76979 15.9819Z" fill="white"/>
<rect x="8.11578" y="6.24835" width="12.8737" height="4.59775" rx="2.29888" fill="#162550"/>
<ellipse cx="18.1027" cy="8.52169" rx="0.842922" ry="0.842921" fill="#04FED1"/>
<ellipse cx="14.5265" cy="19.8628" rx="0.842922" ry="0.842921" fill="#162550"/>
<ellipse cx="11.1554" cy="8.52169" rx="0.842922" ry="0.842921" fill="#04FED1"/>
<ellipse cx="11.1554" cy="19.8628" rx="0.842922" ry="0.842921" fill="#162550"/>
<ellipse cx="17.8987" cy="19.8628" rx="0.842922" ry="0.842921" fill="#162550"/>
</svg>
